<svg width="200" height="240" viewBox="0 0 200 240" fill="none" xmlns="http://www.w3.org/2000/svg">
<path fill-rule="evenodd" clip-rule="evenodd" d="M100.48 0C137.001 0 159.609 8.62883 177.174 26.9201C192.564 43.1533 197.037 64.0172 200 115.437C197.572 170.304 193.732 192.636 180.37 210.342C161.801 230.834 153.435 240 106.871 240C55.3249 240 45.4468 232.314 29.6598 220.03C29.228 219.694 28.7917 219.354 28.3501 219.011C10.8718 203.654 6.36838 187.612 1.41563 154.677C-1.15564 119.444 -0.213471 100.709 4.15472 68.4411C7.45081 48.0098 13.0161 38.5265 26.0675 23.27C44.2791 6.64696 63.9582 0 100.48 0ZM94.4026 15.0693C65.8972 15.6937 50.7729 20.6483 35.5188 34.5C30.0373 41.4536 26.9547 46.0984 24.8856 50.6049C24.8781 50.6199 24.8705 50.6349 24.863 50.6499C22.3342 55.6796 20.4834 61.531 19.0011 70.6448C18.8682 71.6281 18.7386 72.598 18.6123 73.5554C18.5784 73.7027 18.5443 73.8509 18.5099 74C18.3556 75.3104 18.2061 76.5836 18.0613 77.8223C17.4012 83.0561 16.8478 87.933 16.4015 92.624C14.3033 112.779 14.1817 123.598 16.0085 148.5C16.0208 148.577 16.033 148.655 16.0452 148.732C16.138 150.131 16.237 151.557 16.3423 153.014C17.6374 161.579 18.8707 168.651 20.2309 174.635C22.847 187.876 26.3469 196.005 36.5194 206.5C37.4012 207.181 38.2516 207.846 39.0809 208.495C52.2999 218.833 60.1854 225 105.056 225C105.335 225 105.612 225 105.888 224.999C106.214 225 106.541 225 106.871 225C128.297 225 139.299 222.94 146.482 219.847C156.007 216.096 160.982 210.353 167.515 202.813C168.029 202.22 168.553 201.616 169.09 201C180.095 185 182.912 163.652 185.098 114.5C184.86 111.819 184.635 109.24 184.42 106.756C183.723 96.4927 182.935 87.8488 182.008 80.489C180.131 63.3312 177.761 52.8287 171.627 44.0225C170.04 41.5369 168.278 39.3487 166.313 37.2721C158.874 29.5353 150.22 23.7018 138.606 19.9497C128.557 16.575 116.527 15 101.054 15C100.946 15 100.84 15 100.733 15.0001C100.649 15 100.564 15 100.48 15C98.3815 15 96.3573 15.0232 94.4026 15.0693Z" fill="black"/>
<path d="M81.423 197.488C94.0157 158.128 89.9918 134.574 91.5625 93.7351C87.9167 85.8164 79.4917 91.3222 77.0776 99.0434C74.6634 106.765 68.771 140.029 63.5583 145.37C63.5583 145.37 57.2816 150.679 49.5563 143.44C41.831 136.202 48.9392 117.501 62.1099 102.421C78.0721 86.107 84.595 78.3418 77.0776 75.3973C77.0776 75.3973 58.2472 75.3973 55.8331 86.9791C53.4189 98.5609 43.7624 112.073 33.6229 106.282C23.4835 100.491 38.4512 90.8397 33.6229 81.6708C28.7947 72.5019 60.3984 62.3655 77.0776 59.955C83.8234 55.0489 81.0114 55.0825 71.5379 54C57.0302 52.3423 58.5297 54.1561 48.0255 61C48.0255 61 36.0371 65.7459 33.6229 59.955C31.2087 54.1641 33.9014 52.2386 44.5236 45C55.1458 37.7614 70.2269 32.0826 99.2877 50.3035C132.148 37.7959 148.705 33.8888 161.573 54.6467C164.47 60.9202 159.192 63.5438 150.468 60.9202C134.141 52.7294 125.957 51.2188 113.29 54.6467C109.558 58.5 115.069 58.7517 137.573 65.5C157.083 68.5 184.098 90 161.573 112.556C155.418 118.718 149.019 98.5609 134.051 84.5663C124.182 75.3384 111.841 72.0194 115.221 79.258C134.403 106.07 156.262 138.462 143.708 144.405C134.534 148.749 129.47 148.283 123.912 130.411C118.056 100.382 112.807 90.3572 107.013 90.3572C101.219 90.3572 101.702 93.7351 101.702 93.7351C106.419 133.475 107.789 154.984 107.496 191.697C98.4682 201.461 92.5711 201.506 81.423 197.488Z" fill="black"/>
</svg>
