<svg width="172" height="155" viewBox="0 0 172 155" fill="none" xmlns="http://www.w3.org/2000/svg">
<path d="M132.14 132.461C118.129 146.391 98.8196 155 77.5 155C34.6978 155 0 120.302 0 77.5C0 34.6979 34.6978 0 77.5 0C98.7165 0 117.942 8.52546 131.937 22.3375L110.963 43.7881C102.377 35.2654 90.5533 30 77.5 30C51.2666 30 30 51.2665 30 77.5C30 103.734 51.2666 125 77.5 125C90.6164 125 102.491 119.684 111.087 111.088L132.14 132.461Z" fill="white"/>
<path d="M89.9876 65.2399L78 77.5L90.0322 89.7145C86.8537 92.9752 82.4133 95 77.5 95C67.835 95 60 87.165 60 77.5C60 67.835 67.835 60 77.5 60C82.3904 60 86.8122 62.006 89.9876 65.2399Z" fill="white"/>
<path d="M171.5 77.5C171.5 122.5 146 147.5 146 147.5L132 132.5C132 132.5 151 112.5 151 77.5C151 42.5 132 22.5 132 22.5L147.5 8C147.5 8 171.5 32.5 171.5 77.5Z" fill="white"/>
<path d="M141 54C141 58.9706 136.971 63 132 63C127.029 63 123 58.9706 123 54C123 49.0294 127.029 45 132 45C136.971 45 141 49.0294 141 54Z" fill="white"/>
<path d="M144 97C144 101.971 139.971 106 135 106C130.029 106 126 101.971 126 97C126 92.0294 130.029 88 135 88C139.971 88 144 92.0294 144 97Z" fill="white"/>
<path d="M123 77C123 84.732 116.732 91 109 91C101.268 91 95 84.732 95 77C95 69.268 101.268 63 109 63C116.732 63 123 69.268 123 77Z" fill="white"/>
</svg>
